<svg xmlns="http://www.w3.org/2000/svg" viewBox="0 0 450 850" fill="none">
  <defs>
    <linearGradient id="aR_flow_grad" x1="100%" y1="0%" x2="0%" y2="100%">
      <stop offset="0%" stop-color="#EF4444" />
      <stop offset="40%" stop-color="#DC2626" />
      <stop offset="80%" stop-color="#B91C1C" />
      <stop offset="100%" stop-color="#7F1D1D" />
    </linearGradient>
    <linearGradient id="aR_flow_glow" x1="100%" y1="0%" x2="0%" y2="100%">
      <stop offset="0%" stop-color="#FCA5A5" />
      <stop offset="50%" stop-color="#F87171" />
      <stop offset="100%" stop-color="#DC2626" stop-opacity="0.1" />
    </linearGradient>
    <filter id="aR_flow_shadow" x="-20%" y="-20%" width="140%" height="140%">
      <feDropShadow dx="6" dy="12" stdDeviation="16" flood-color="#991B1B" flood-opacity="0.22" />
    </filter>
  </defs>
  <!-- Ambient Translucent Flow -->
  <path d="M 400 40 
           C 270 160, 200 340, 290 520 
           C 360 660, 440 730, 390 820 
           C 320 830, 230 740, 180 600 
           C 130 420, 210 200, 340 40 Z" 
        fill="#DC2626" fill-opacity="0.16" />

  <!-- Main Open Aerodynamic Flow Ribbon (Open Wave, No Circle) -->
  <path d="M 380 70 
           C 260 190, 210 350, 280 520 
           C 330 630, 410 700, 370 790 
           C 310 800, 250 720, 210 610 
           C 170 480, 230 270, 330 70 Z" 
        fill="url(#aR_flow_grad)" filter="url(#aR_flow_shadow)" />

  <!-- Luminous Edge Spine -->
  <path d="M 380 70 C 260 190, 210 350, 280 520 C 330 630, 410 700, 370 790" 
        stroke="url(#aR_flow_glow)" stroke-width="4.5" stroke-linecap="round" />

  <!-- FinTech Trajectory Stream Accent -->
  <path d="M 345 110 C 245 220, 220 360, 275 510 C 310 600, 375 660, 345 750" 
        stroke="#FFFFFF" stroke-opacity="0.32" stroke-width="1.5" stroke-dasharray="4 6" stroke-linecap="round" />
</svg>