<svg xmlns="http://www.w3.org/2000/svg" viewBox="0 0 450 850" fill="none">
  <defs>
    <linearGradient id="fR_grad" x1="100%" y1="0%" x2="0%" y2="100%">
      <stop offset="0%" stop-color="#EF4444" />
      <stop offset="40%" stop-color="#DC2626" />
      <stop offset="100%" stop-color="#7F1D1D" />
    </linearGradient>
    <filter id="fR_shadow" x="-20%" y="-20%" width="140%" height="140%">
      <feDropShadow dx="6" dy="10" stdDeviation="14" flood-color="#DC2626" flood-opacity="0.2" />
    </filter>
  </defs>
  <!-- Slender Serpentine Spine -->
  <path d="M 400 50 
           C 290 140, 180 260, 240 400 
           C 300 540, 420 620, 360 780 
           C 340 820, 280 840, 240 800 
           C 280 760, 320 680, 280 580 
           C 240 460, 150 360, 210 240 
           C 260 130, 340 80, 400 50 Z" 
        fill="url(#fR_grad)" filter="url(#fR_shadow)" />
  <!-- Highlight Crest -->
  <path d="M 400 50 C 290 140, 180 260, 240 400 C 300 540, 420 620, 360 780" 
        stroke="#FCA5A5" stroke-width="4" stroke-linecap="round" />
  <!-- Precision Dotted Micro-flow -->
  <path d="M 360 90 C 265 175, 175 285, 220 410 C 265 525, 360 595, 325 725" 
        stroke="#FFFFFF" stroke-opacity="0.32" stroke-width="1.5" stroke-dasharray="4 6" />
</svg>